<svg width="48" height="48" viewBox="0 0 48 48" fill="none" xmlns="http://www.w3.org/2000/svg">
<g filter="url(#filter0_d_422_4982)">
<circle cx="24" cy="22" r="21" fill="#0C1D37" stroke="#FF7A00" stroke-width="2"/>
<g opacity="0.6">
<path d="M24.1328 30.4624L34.0124 26.5586V28.201L24.1328 32.1048V30.4624Z" fill="#7A8396"/>
<path d="M24.1283 30.4621L34.0078 26.5583L23.6608 23.8926L13.7812 27.7964L24.1283 30.4621Z" fill="#9A9EB0"/>
<g style="mix-blend-mode:multiply">
<mask id="mask0_422_4982" style="mask-type:alpha" maskUnits="userSpaceOnUse" x="13" y="23" width="22" height="8">
<path d="M24.1283 30.4621L34.0078 26.5583L23.6608 23.8926L13.7812 27.7964L24.1283 30.4621Z" fill="#9A9EB0"/>
</mask>
<g mask="url(#mask0_422_4982)">
<g style="mix-blend-mode:multiply" filter="url(#filter1_f_422_4982)">
<path d="M24.0839 29.1229L31.9517 26.0149L23.7116 23.8926L15.8438 27.0006L24.0839 29.1229Z" fill="#9A9EB0"/>
</g>
</g>
</g>
<path d="M24.1283 30.4626L13.7812 27.7969V29.4393L24.1283 32.105V30.4626Z" fill="#BCC3D3"/>
</g>
<g opacity="0.7">
<path d="M24.1328 27.5171L34.0124 23.6133V25.2557L24.1328 29.1595V27.5171Z" fill="#7A8396"/>
<path d="M24.1283 27.5168L34.0078 23.613L23.6608 20.9473L13.7812 24.8511L24.1283 27.5168Z" fill="#9A9EB0"/>
<g style="mix-blend-mode:multiply">
<mask id="mask1_422_4982" style="mask-type:alpha" maskUnits="userSpaceOnUse" x="13" y="20" width="22" height="8">
<path d="M24.1283 27.5168L34.0078 23.613L23.6608 20.9473L13.7812 24.8511L24.1283 27.5168Z" fill="#9A9EB0"/>
</mask>
<g mask="url(#mask1_422_4982)">
<g style="mix-blend-mode:multiply" filter="url(#filter2_f_422_4982)">
<path d="M24.0839 26.1776L31.9517 23.0696L23.7116 20.9473L15.8438 24.0553L24.0839 26.1776Z" fill="#9A9EB0"/>
</g>
</g>
</g>
<path d="M24.1283 27.5173L13.7812 24.8516V26.4939L24.1283 29.1597V27.5173Z" fill="#BCC3D3"/>
</g>
<g opacity="0.8">
<path d="M24.1328 24.4634L34.0124 20.5596V22.202L24.1328 26.1058V24.4634Z" fill="#7A8396"/>
<path d="M24.1283 24.4631L34.0078 20.5593L23.6608 17.8936L13.7812 21.7974L24.1283 24.4631Z" fill="#9A9EB0"/>
<g style="mix-blend-mode:multiply">
<mask id="mask2_422_4982" style="mask-type:alpha" maskUnits="userSpaceOnUse" x="13" y="17" width="22" height="8">
<path d="M24.1283 24.4631L34.0078 20.5593L23.6608 17.8936L13.7812 21.7974L24.1283 24.4631Z" fill="#9A9EB0"/>
</mask>
<g mask="url(#mask2_422_4982)">
<g style="mix-blend-mode:multiply" filter="url(#filter3_f_422_4982)">
<path d="M24.0839 23.1239L31.9517 20.0159L23.7116 17.8936L15.8438 21.0016L24.0839 23.1239Z" fill="#9A9EB0"/>
</g>
</g>
</g>
<path d="M24.1283 24.4626L13.7812 21.7969V23.4393L24.1283 26.105V24.4626Z" fill="#BCC3D3"/>
</g>
<g opacity="0.9">
<path d="M24.1328 21.4097L34.0124 17.5059V19.1482L24.1328 23.0521V21.4097Z" fill="#7A8396"/>
<path d="M24.1283 21.4094L34.0078 17.5056L23.6608 14.8398L13.7812 18.7437L24.1283 21.4094Z" fill="#9A9EB0"/>
<g style="mix-blend-mode:multiply">
<mask id="mask3_422_4982" style="mask-type:alpha" maskUnits="userSpaceOnUse" x="13" y="14" width="22" height="8">
<path d="M24.1283 21.4094L34.0078 17.5056L23.6608 14.8398L13.7812 18.7437L24.1283 21.4094Z" fill="#9A9EB0"/>
</mask>
<g mask="url(#mask3_422_4982)">
<g style="mix-blend-mode:multiply" filter="url(#filter4_f_422_4982)">
<path d="M24.0839 20.0702L31.9517 16.9622L23.7116 14.8398L15.8438 17.9479L24.0839 20.0702Z" fill="#9A9EB0"/>
</g>
</g>
</g>
<path d="M24.1283 21.4099L13.7812 18.7441V20.3865L24.1283 23.0522V21.4099Z" fill="#BCC3D3"/>
</g>
<path d="M24.1328 18.3569L34.0124 14.4531V16.0955L24.1328 19.9993V18.3569Z" fill="#7A8396"/>
<path d="M24.1283 18.3566L34.0078 14.4528L23.6608 11.7871L13.7812 15.6909L24.1283 18.3566Z" fill="#9A9EB0"/>
<path d="M24.1283 18.3571L13.7812 15.6914V17.3338L24.1283 19.9995V18.3571Z" fill="#BCC3D3"/>
</g>
<defs>
<filter id="filter0_d_422_4982" x="0" y="0" width="48" height="48" filterUnits="userSpaceOnUse" color-interpolation-filters="sRGB">
<feFlood flood-opacity="0" result="BackgroundImageFix"/>
<feColorMatrix in="SourceAlpha" type="matrix" values="0 0 0 0 0 0 0 0 0 0 0 0 0 0 0 0 0 0 127 0" result="hardAlpha"/>
<feOffset dy="2"/>
<feGaussianBlur stdDeviation="1"/>
<feComposite in2="hardAlpha" operator="out"/>
<feColorMatrix type="matrix" values="0 0 0 0 0 0 0 0 0 0 0 0 0 0 0 0 0 0 0.25 0"/>
<feBlend mode="normal" in2="BackgroundImageFix" result="effect1_dropShadow_422_4982"/>
<feBlend mode="normal" in="SourceGraphic" in2="effect1_dropShadow_422_4982" result="shape"/>
</filter>
<filter id="filter1_f_422_4982" x="14.39" y="22.4389" width="19.0149" height="8.13791" filterUnits="userSpaceOnUse" color-interpolation-filters="sRGB">
<feFlood flood-opacity="0" result="BackgroundImageFix"/>
<feBlend mode="normal" in="SourceGraphic" in2="BackgroundImageFix" result="shape"/>
<feGaussianBlur stdDeviation="0.726859" result="effect1_foregroundBlur_422_4982"/>
</filter>
<filter id="filter2_f_422_4982" x="14.39" y="19.4935" width="19.0149" height="8.13791" filterUnits="userSpaceOnUse" color-interpolation-filters="sRGB">
<feFlood flood-opacity="0" result="BackgroundImageFix"/>
<feBlend mode="normal" in="SourceGraphic" in2="BackgroundImageFix" result="shape"/>
<feGaussianBlur stdDeviation="0.726859" result="effect1_foregroundBlur_422_4982"/>
</filter>
<filter id="filter3_f_422_4982" x="14.39" y="16.4398" width="19.0149" height="8.13791" filterUnits="userSpaceOnUse" color-interpolation-filters="sRGB">
<feFlood flood-opacity="0" result="BackgroundImageFix"/>
<feBlend mode="normal" in="SourceGraphic" in2="BackgroundImageFix" result="shape"/>
<feGaussianBlur stdDeviation="0.726859" result="effect1_foregroundBlur_422_4982"/>
</filter>
<filter id="filter4_f_422_4982" x="14.39" y="13.3861" width="19.0149" height="8.13791" filterUnits="userSpaceOnUse" color-interpolation-filters="sRGB">
<feFlood flood-opacity="0" result="BackgroundImageFix"/>
<feBlend mode="normal" in="SourceGraphic" in2="BackgroundImageFix" result="shape"/>
<feGaussianBlur stdDeviation="0.726859" result="effect1_foregroundBlur_422_4982"/>
</filter>
</defs>
</svg>
