<svg width="16" height="16" viewBox="0 0 16 16" fill="none" xmlns="http://www.w3.org/2000/svg">
<path d="M12.8665 9.14377C13.5209 7.49817 13.4878 5.6497 12.7641 4.04316L10.5793 4.00001C10.5431 3.9993 10.5133 4.02829 10.5131 4.06447L10.4947 6.74458C10.4945 6.76195 10.5014 6.77864 10.5137 6.79093L12.8665 9.14377ZM12.8665 9.14377C12.5422 9.95943 12.0489 10.7253 11.3871 11.3871C10.7253 12.0489 9.95943 12.5422 9.14377 12.8665M9.14377 12.8665C7.49817 13.5209 5.6497 13.4878 4.04316 12.7641L4.00001 10.5793C3.9993 10.5431 4.02829 10.5133 4.06447 10.5131L6.74458 10.4947C6.76195 10.4945 6.77864 10.5014 6.79093 10.5137L9.14377 12.8665Z" stroke="#FF7A00" stroke-width="1.33333"/>
<path d="M5.33073 8.66699C5.33073 6.82604 6.82311 5.33366 8.66406 5.33366" stroke="#FF7A00" stroke-width="1.33333"/>
<path d="M2.66406 8.66699C2.66406 5.35328 5.35035 2.66699 8.66406 2.66699" stroke="#FF7A00" stroke-width="1.33333"/>
</svg>
